<mxfile>
    <diagram id="PSor4pICwsiGt5uSvt43" name="Page-1">
        <mxGraphModel dx="1056" dy="790" grid="1" gridSize="10" guides="1" tooltips="1" connect="1" arrows="1" fold="1" page="1" pageScale="1" pageWidth="827" pageHeight="1169" math="0" shadow="0">
            <root>
                <mxCell id="0"/>
                <mxCell id="1" parent="0"/>
                <mxCell id="15" value="" style="shape=ext;double=1;rounded=1;whiteSpace=wrap;html=1;" vertex="1" parent="1">
                    <mxGeometry x="180" y="40" width="480" height="430" as="geometry"/>
                </mxCell>
                <mxCell id="2" value="Funciones básicas" style="text;strokeColor=none;fillColor=none;html=1;fontSize=24;fontStyle=1;verticalAlign=middle;align=center;" vertex="1" parent="1">
                    <mxGeometry x="200" y="95" width="250" height="40" as="geometry"/>
                </mxCell>
                <mxCell id="13" value="Para Agrupación:&lt;br&gt;&lt;ol&gt;&lt;li&gt;Crear perfil con:&lt;/li&gt;&lt;ul&gt;&lt;li&gt;Nombre&lt;/li&gt;&lt;li&gt;Descripción&lt;/li&gt;&lt;li&gt;Categoría&lt;/li&gt;&lt;li&gt;Necesidades constantes (materiales, trabajos voluntarios, etc)&lt;/li&gt;&lt;/ul&gt;&lt;li&gt;Publicar campañas para recolectar recursos por temas específicos&lt;/li&gt;&lt;/ol&gt;" style="text;strokeColor=none;fillColor=none;html=1;whiteSpace=wrap;verticalAlign=middle;overflow=hidden;labelPosition=center;verticalLabelPosition=middle;align=center;" vertex="1" parent="1">
                    <mxGeometry x="220" y="145" width="190" height="280" as="geometry"/>
                </mxCell>
                <mxCell id="14" value="Para Patrocinadores:&lt;br&gt;&lt;ol&gt;&lt;li&gt;Crear perfil con:&lt;/li&gt;&lt;ul&gt;&lt;li&gt;Nombre&lt;/li&gt;&lt;li&gt;Correo&lt;/li&gt;&lt;li&gt;Rut&lt;/li&gt;&lt;/ul&gt;&lt;li&gt;Buscar Agrupaciones por Categoría o por tipo de recursos que necesitan&lt;/li&gt;&lt;li&gt;Ofrecer aportes&lt;/li&gt;&lt;/ol&gt;" style="text;strokeColor=none;fillColor=none;html=1;whiteSpace=wrap;verticalAlign=middle;overflow=hidden;" vertex="1" parent="1">
                    <mxGeometry x="450" y="145" width="190" height="225" as="geometry"/>
                </mxCell>
                <mxCell id="16" value="" style="shape=ext;double=1;rounded=1;whiteSpace=wrap;html=1;" vertex="1" parent="1">
                    <mxGeometry x="180" y="505" width="490" height="375" as="geometry"/>
                </mxCell>
                <mxCell id="17" value="Funciones secundarias" style="text;strokeColor=none;fillColor=none;html=1;fontSize=24;fontStyle=1;verticalAlign=middle;align=center;" vertex="1" parent="1">
                    <mxGeometry x="194" y="527.5" width="326" height="40" as="geometry"/>
                </mxCell>
                <mxCell id="18" value="Para Agrupación:&lt;br&gt;&lt;ol&gt;&lt;li&gt;Compartir perfil y campañas por redes sociales&lt;/li&gt;&lt;li&gt;Subir imagenes( Esto podría ser parte del perfil en realidad, si no es algo tan complejo de hacer)&lt;/li&gt;&lt;/ol&gt;" style="text;strokeColor=none;fillColor=none;html=1;whiteSpace=wrap;verticalAlign=middle;overflow=hidden;" vertex="1" parent="1">
                    <mxGeometry x="220" y="590" width="190" height="145" as="geometry"/>
                </mxCell>
                <mxCell id="19" value="Para Patrocinadores:&lt;br&gt;&lt;ol&gt;&lt;li&gt;Compartir campañas de Agrupaciones por redes sociales&lt;/li&gt;&lt;li&gt;Publicar recursos disponibles para las Agrupaciones que las necesiten&lt;/li&gt;&lt;li&gt;Ganar puntos por hacer donaciones con empresas patrocinantes (esta es una volada que se me ocurrió, pero no creo que podamos hacerlo en el tiempo)&lt;/li&gt;&lt;/ol&gt;" style="text;strokeColor=none;fillColor=none;html=1;whiteSpace=wrap;verticalAlign=middle;overflow=hidden;" vertex="1" parent="1">
                    <mxGeometry x="450" y="590" width="190" height="240" as="geometry"/>
                </mxCell>
            </root>
        </mxGraphModel>
    </diagram>
</mxfile>